<svg width="226.777" height="226.777" xmlns="http://www.w3.org/2000/svg">

 <g>
  <title>background</title>
  <rect fill="none" id="canvas_background" height="228.777" width="228.777" y="-1" x="-1"/>
 </g>
 <g>
  <title>Layer 1</title>
  <g fill="#FFFFFF" id="BTC_2_">
   <path id="svg_1" d="m135.714996,122.244003c-2.613998,-1.310005 -8.436996,-3.074005 -15.367996,-3.533005c-6.933998,-0.458 -15.828003,0 -15.828003,0l0,30.020004c0,0 9.287003,0.197998 15.503006,-0.26001c6.209999,-0.457993 12.621002,-2.026993 15.826004,-3.794998c3.202988,-1.765991 7.062988,-4.513 7.062988,-11.378998c0,-6.868996 -4.578995,-9.744995 -7.195999,-11.052994z"/>
   <path id="svg_2" d="m116.160004,104.778999c5.103996,-0.196999 10.531998,-1.373001 14.453003,-3.531998c3.924988,-2.158005 6.147995,-5.556999 6.019989,-10.660004c-0.134003,-5.101997 -3.531998,-9.417999 -9.286995,-11.185997c-5.757004,-1.765999 -9.612999,-1.897003 -13.998001,-1.961998c-4.381996,-0.064003 -8.830002,0.327995 -8.830002,0.327995l0,27.012001c0.000999,0 6.541,0.196999 11.642006,0z"/>
   <path id="svg_3" d="m113.413002,0c-62.636002,0 -113.413002,50.776001 -113.413002,113.413002c0,62.635994 50.777,113.413002 113.413002,113.413002s113.411003,-50.777008 113.411003,-113.413002c0,-62.637001 -50.775009,-113.413002 -113.411003,-113.413002zm46.178001,156.776993c-8.440002,5.886993 -17.464996,6.934998 -21.455002,7.455994c-1.968994,0.259003 -5.341995,0.531998 -8.959,0.744003l0,22.738007l-13.998001,0l0,-22.37001c-2.614998,0 -6.361,0 -10.660004,0l0,22.37001l-13.996994,0l0,-22.37001c-13.852005,0 -27.535004,0 -27.535004,0l2.876999,-16.811996c0,0 5.558998,0 8.371002,0c2.814003,0 3.988998,-0.261002 5.166,-1.371994c1.177002,-1.113007 1.438995,-2.812012 1.438995,-4.188004c0,-1.373001 0,-54.286003 0,-57.916c0,-3.627998 -0.294998,-4.610001 -1.962997,-6.473c-1.667999,-1.867004 -5.590996,-2.112 -7.799995,-2.112c-2.207001,0 -8.091003,0 -8.091003,0l0,-14.532993c0,0 13.246002,0 27.535004,0l0,-22.433998l13.995995,0l0,22.433998c3.889,0 7.537003,0 10.660004,0l0,-22.433998l13.998001,0l0,22.702999c10.434998,0.646999 18.203003,2.635002 24.983002,7.644997c8.765991,6.475006 8.306,17.724007 8.110001,20.406006c-0.195007,2.681999 -1.372009,7.849998 -3.729004,11.182999c-2.352005,3.336998 -8.108002,6.672997 -8.108002,6.672997s6.800995,1.438004 11.578003,5.036003c4.770996,3.598 8.306992,9.941002 8.106003,19.229004c-0.192001,9.287994 -2.088013,18.511002 -10.524002,24.396988z"/>
  </g>
  <rect stroke="#ffffff" id="svg_4" height="89" width="118" y="61.588501" x="50.888489" stroke-width="1.5" fill="none"/>
  <rect id="svg_5" height="127" width="146" y="45.588501" x="39.888489" stroke-width="1.5" stroke="#ffffff" fill="#ffffff"/>
  <rect id="svg_6" height="57" width="86" y="140.588501" x="65.888489" stroke-width="1.5" stroke="#ffffff" fill="#ffffff"/>
  <rect id="svg_7" height="38" width="63" y="30.588501" x="77.888489" stroke-width="1.5" stroke="#ffffff" fill="#ffffff"/>
  <text xml:space="preserve" text-anchor="start" font-family="Euphoria, sans-serif" font-size="100" id="svg_8" y="154.588501" x="13.888489" stroke-width="0" stroke="#ff2a6a" fill="#ff2a68">BKB</text>
 </g>
</svg>